<svg aria-hidden="true" style="width:0;height:0;position:absolute;overflow:hidden" xmlns="http://www.w3.org/2000/svg"><defs><symbol id="icon-logo" viewBox="0 0 31 32"><path fill="#f6f6f6" style="fill:var(--color1,#f6f6f6)" d="m0 .615 15.714 15.549 15.055 15.22V.615H0z"/><path fill="#f6f6f6" style="fill:var(--color1,#f6f6f6)" d="m4.286 4.681 11.483 11.374 10.824 11.044H4.285V4.681z"/><path fill="#4f2ee8" style="fill:var(--color2,#4f2ee8)" d="M26.666 27.171 15.182 15.797 4.358 4.753h22.308v22.418z"/><path fill="#4f2ee8" style="fill:var(--color2,#4f2ee8)" d="m8.901 9.297 13.077 13.077H8.901V9.297z"/><path fill="#f6f6f6" style="fill:var(--color1,#f6f6f6)" d="m8.901 9.297 13.077 13.077V9.297H8.901z"/></symbol><symbol id="icon-full-logo--dark-theme" viewBox="0 0 98 32"><path fill="#f6f6f6" style="fill:var(--color1,#f6f6f6)" d="m0 1.714 14.592 14.439 13.98 14.133V1.715H.001z"/><path fill="#f6f6f6" style="fill:var(--color1,#f6f6f6)" d="m3.98 5.49 10.663 10.561 10.051 10.255H3.98V5.49z"/><path fill="#4f2ee8" style="fill:var(--color2,#4f2ee8)" d="M24.762 26.373 14.099 15.812 4.048 5.557h20.714v20.816z"/><path fill="#4f2ee8" style="fill:var(--color2,#4f2ee8)" d="m8.265 9.776 12.143 12.143H8.265V9.776z"/><path fill="#f6f6f6" style="fill:var(--color1,#f6f6f6)" d="m8.265 9.776 12.143 12.143V9.776H8.265z"/><path fill="#f3f3f3" style="fill:var(--color3,#f3f3f3)" d="M52.391 11.076c0-3.061-2.315-4.791-6.317-4.791h-8.36v19.029h8.822c4.03 0 6.617-1.89 6.617-5.562 0-2.848-1.743-4.312-3.785-4.658v-.053c1.607-.532 3.023-1.623 3.023-3.966zm-11.436 3.088v-5.19h5.201c1.933 0 2.995.931 2.995 2.608s-.871 2.582-3.186 2.582h-5.01zm0 2.368h5.691c2.042 0 3.268 1.091 3.268 3.034 0 1.783-.844 3.061-3.621 3.061h-5.337v-6.095zM61.467 25.714c-4.357 0-6.998-2.954-6.998-7.186s2.641-7.186 6.998-7.186 6.998 2.954 6.998 7.186c0 4.232-2.641 7.186-6.998 7.186zm0-2.289c2.723 0 4.139-2.103 4.139-4.897 0-2.821-1.416-4.897-4.139-4.897s-4.139 2.076-4.139 4.897c0 2.794 1.416 4.897 4.139 4.897zM76.704 25.714c-4.357 0-6.998-2.954-6.998-7.186s2.641-7.186 6.998-7.186 6.998 2.954 6.998 7.186-2.641 7.186-6.998 7.186zm0-2.289c2.723 0 4.139-2.103 4.139-4.897 0-2.821-1.416-4.897-4.139-4.897s-4.139 2.076-4.139 4.897c0 2.794 1.416 4.897 4.139 4.897zM85.678 6.286v19.029h2.859v-4.924l1.933-1.783 4.384 6.707h3.431l-5.854-8.543 5.283-5.057h-3.513l-5.664 5.456V6.286h-2.859z"/></symbol><symbol id="icon-full-logo" viewBox="0 0 98 32"><path fill="#f6f6f6" style="fill:var(--color1,#f6f6f6)" d="m0 1.714 14.592 14.439 13.98 14.133V1.715H.001z"/><path fill="#f6f6f6" style="fill:var(--color1,#f6f6f6)" d="m3.98 5.49 10.663 10.561 10.051 10.255H3.98V5.49z"/><path fill="#4f2ee8" style="fill:var(--color2,#4f2ee8)" d="M24.762 26.373 14.099 15.812 4.048 5.557h20.714v20.816z"/><path fill="#4f2ee8" style="fill:var(--color2,#4f2ee8)" d="m8.265 9.776 12.143 12.143H8.265V9.776z"/><path fill="#f6f6f6" style="fill:var(--color1,#f6f6f6)" d="m8.265 9.776 12.143 12.143V9.776H8.265z"/><path style="fill:var(--color4,#000)" d="M52.391 11.076c0-3.061-2.315-4.791-6.317-4.791h-8.36v19.029h8.822c4.03 0 6.617-1.89 6.617-5.562 0-2.848-1.743-4.312-3.785-4.658v-.053c1.607-.532 3.023-1.623 3.023-3.966zm-11.436 3.088v-5.19h5.201c1.933 0 2.995.931 2.995 2.608s-.871 2.582-3.186 2.582h-5.01zm0 2.368h5.691c2.042 0 3.268 1.091 3.268 3.034 0 1.783-.844 3.061-3.621 3.061h-5.337v-6.095zM61.467 25.714c-4.357 0-6.998-2.954-6.998-7.186s2.641-7.186 6.998-7.186 6.998 2.954 6.998 7.186c0 4.232-2.641 7.186-6.998 7.186zm0-2.289c2.723 0 4.139-2.103 4.139-4.897 0-2.821-1.416-4.897-4.139-4.897s-4.139 2.076-4.139 4.897c0 2.794 1.416 4.897 4.139 4.897zM76.704 25.714c-4.357 0-6.998-2.954-6.998-7.186s2.641-7.186 6.998-7.186 6.998 2.954 6.998 7.186-2.641 7.186-6.998 7.186zm0-2.289c2.723 0 4.139-2.103 4.139-4.897 0-2.821-1.416-4.897-4.139-4.897s-4.139 2.076-4.139 4.897c0 2.794 1.416 4.897 4.139 4.897zM85.678 6.286v19.029h2.859v-4.924l1.933-1.783 4.384 6.707h3.431l-5.854-8.543 5.283-5.057h-3.513l-5.664 5.456V6.286h-2.859z"/></symbol><symbol id="icon-emblem" viewBox="0 0 20 32"><path d="M9.005 30.888a8.64 8.64 0 0 1-3.414-5.351H0V2.42c2.991 1.443 5.153 4.599 5.388 7.876l.846 6.493-.407-.045c-.893 0-1.676.812-1.676 1.608 0 .752.595 1.383 1.378 1.548l1.018.226c1.676-3.051 2.631-6.042 2.631-8.973 0-2.645-.36-5.291-.423-7.996 0-1.202.486-2.3 1.253-3.156.783.857 1.253 1.954 1.253 3.156 0 2.705-.423 5.351-.423 7.996 0 2.931.955 5.922 2.631 8.973l1.018-.226c.783-.165 1.378-.812 1.378-1.548 0-.812-.783-1.608-1.676-1.608l-.423.06.846-6.493c.423-3.277 2.396-6.448 5.388-7.876v23.117h-5.576c-.423 2.179-1.613 4.148-3.414 5.351-.423.286-.783.631-1.018 1.097-.219-.466-.579-.812-.987-1.112zM2.647 17.556c.235-.857.893-1.608 1.738-2.074l-.658-5.351a8.288 8.288 0 0 0-2.036-4.374v11.784h.955v.015zm2.819 6.373c0-.812.125-1.548.298-2.3l-.783-.18c-1.143-.346-2.036-1.203-2.334-2.3h-.955v4.78h3.774zm3.712 0c0-.977-.783-1.834-1.801-1.954-.172.631-.298 1.263-.298 1.954h2.099zm0 1.623H7.314c.298 1.263.955 2.42 1.864 3.397v-3.397zm2.631-5.005c-.72-1.262-1.378-2.585-1.801-3.968-.423 1.383-1.081 2.706-1.801 3.968.72.165 1.316.631 1.801 1.157.486-.526 1.081-.992 1.801-1.157zm1.143 3.382c0-.691-.125-1.323-.297-1.954-1.018.12-1.801.977-1.801 1.954h2.099zm-.235 1.623h-1.864v3.397c.908-.992 1.566-2.134 1.864-3.397zm5.623-1.623v-4.78h-.955c-.298 1.097-1.206 1.954-2.334 2.3l-.783.18c.172.752.298 1.488.298 2.3h3.774zm0-6.373V5.757c-1.081 1.202-1.864 2.706-2.036 4.374l-.658 5.351c.846.466 1.504 1.203 1.739 2.074h.955z"/></symbol><symbol id="icon-user" viewBox="0 0 32 32"><path d="M5.333 29.333a10.662 10.662 0 0 1 18.208-7.543c2 2 3.124 4.714 3.124 7.543H5.332zm10.667-12c-4.42 0-8-3.58-8-8s3.58-8 8-8 8 3.58 8 8-3.58 8-8 8z"/></symbol><symbol id="icon-auth-password" viewBox="0 0 32 32"><path d="M14.751 2.963c-2.978.502-5.406 2.654-6.24 5.535-.257.886-.297 1.331-.297 3.257v1.783l-.36.034c-.999.096-1.616.243-2.174.521-.962.48-1.658 1.15-2.16 2.08-.278.515-.398.874-.517 1.544-.086.488-.097.887-.097 3.616 0 3.763.04 4.095.614 5.159.499.926 1.199 1.599 2.16 2.079.421.21.745.312 1.36.427.472.088 1.093.095 8.96.095s8.488-.007 8.96-.095c.84-.157 1.342-.359 2-.803.826-.558 1.554-1.522 1.858-2.462.256-.793.275-1.099.275-4.4 0-3.302-.019-3.608-.275-4.4-.368-1.139-1.229-2.155-2.326-2.747-.651-.351-1.25-.507-2.346-.614l-.36-.034v-1.783c0-1.926-.04-2.371-.297-3.257A7.813 7.813 0 0 0 19.868 3.9a7.692 7.692 0 0 0-2.67-.939c-.611-.098-1.855-.097-2.448.002zm2.369 2.299c1.742.344 3.322 1.671 3.994 3.355.363.91.4 1.197.403 3.169l.002 1.734h-11.04l.002-1.734c.002-1.97.038-2.256.401-3.165.871-2.181 3.074-3.599 5.383-3.465.25.015.634.062.854.105zm6.456 10.576c.543.027 1.079.085 1.28.136.856.221 1.617.981 1.837 1.835.247.96.247 6.089 0 7.048-.219.854-.981 1.615-1.835 1.835-.601.155-2.011.185-8.857.185s-8.256-.03-8.857-.185c-.855-.221-1.616-.982-1.835-1.835-.248-.96-.247-6.09 0-7.048.221-.856.979-1.613 1.839-1.838.191-.049.695-.107 1.12-.129 1.126-.057 14.206-.061 15.31-.005z"/></symbol><symbol id="icon-auth-mail" viewBox="0 0 32 32"><path d="M6.4 4.248c-.475.049-1.258.195-1.51.282-.931.32-1.833.997-2.374 1.782-.501.726-.687 1.19-.861 2.142-.104.568-.107.798-.106 7.333.001 6.435.018 7.322.16 8.054a4.847 4.847 0 0 0 1.997 3.023c.658.445 1.16.646 2 .802.474.089 1.15.095 10.294.095s9.819-.006 10.294-.095c.869-.162 1.357-.362 2.061-.848a4.808 4.808 0 0 0 1.935-2.977c.145-.755.161-1.539.161-8.026.001-6.561-.002-6.792-.106-7.36-.138-.757-.225-1.023-.506-1.56-.395-.754-.882-1.307-1.544-1.755-.634-.43-1.141-.638-1.947-.8-.417-.085-1.216-.093-10.106-.101-5.31-.005-9.737 0-9.84.01zm18.537 2.256c.512.027 1.062.087 1.254.137.845.218 1.614.981 1.83 1.811.065.251.069.334.018.383-.198.19-11.107 7.776-11.387 7.919-.265.135-.401.17-.651.17s-.386-.035-.651-.17c-.28-.143-11.19-7.729-11.387-7.919-.051-.05-.049-.121.008-.338.111-.422.296-.754.609-1.094.576-.624 1.114-.831 2.328-.895 1.091-.057 16.959-.061 18.031-.005zm-17.84 7.322c1.77 1.24 3.216 2.273 3.211 2.298-.005.024-1.456 1.351-3.225 2.949l-3.217 2.905-.035-.23c-.054-.338-.051-10.175.001-10.175.025 0 1.495 1.014 3.265 2.253zm21.113 2.748c-.002 2.75-.019 5.09-.04 5.202l-.037.202-3.217-2.905c-1.769-1.598-3.221-2.925-3.225-2.949-.008-.048 6.4-4.551 6.477-4.551.025 0 .043 2.249.042 5zm-14.972 1.541c1.325.896 1.801 1.082 2.762 1.082.962 0 1.438-.186 2.767-1.085.507-.344.945-.618.973-.609s1.789 1.587 3.915 3.507l3.865 3.49-.2.206a2.603 2.603 0 0 1-1.131.653c-.61.158-2.051.184-10.189.184s-9.578-.026-10.189-.184a2.61 2.61 0 0 1-1.131-.651l-.2-.206 3.88-3.504c2.134-1.928 3.897-3.505 3.919-3.505s.453.28.959.622z"/></symbol><symbol id="icon-cart" viewBox="0 0 32 32"><path d="M25.333 9.333h-4V8a5.332 5.332 0 1 0-10.666 0v1.333h-4a1.335 1.335 0 0 0-1.334 1.334v14.667a4.003 4.003 0 0 0 4 4h13.333a4.003 4.003 0 0 0 4-4V10.667a1.335 1.335 0 0 0-1.334-1.334zM13.333 8a2.668 2.668 0 0 1 5.334 0v1.333h-5.333V8zM24 25.333a1.335 1.335 0 0 1-1.334 1.334H9.333a1.335 1.335 0 0 1-1.334-1.334V12h2.667v1.333a1.335 1.335 0 0 0 2.277.943c.25-.251.391-.589.391-.943V12h5.333v1.333a1.333 1.333 0 1 0 2.667 0V12h2.667v13.333z"/></symbol><symbol id="icon-delete" viewBox="0 0 32 32"><path d="M15.04.031c-.103.012-.451.047-.773.078-.763.075-2.021.326-2.824.563-1.815.536-3.73 1.524-5.309 2.741-.763.588-2.287 2.143-2.883 2.942C1.528 8.666.516 11.146.129 14c-.115.847-.132 2.932-.031 3.733.267 2.123.748 3.711 1.673 5.532 1.549 3.018 3.946 5.416 6.876 6.923l.089.041c2.382 1.211 4.598 1.742 7.265 1.742s4.883-.531 7.265-1.742c1.593-.81 2.684-1.608 4.019-2.945s2.135-2.426 2.945-4.019c.925-1.821 1.407-3.414 1.673-5.532.099-.785.083-2.835-.027-3.671-.39-2.943-1.487-5.591-3.288-7.929C28 5.37 26.445 3.846 25.646 3.25 23.345 1.534 20.817.501 18.028.135c-.632-.083-2.584-.152-2.987-.104zm3.707 8.26c.297.124.408.358.388.816-.015.349-.033.403-.181.551a.924.924 0 0 1-.366.211l-.007.002c-.272.062-4.892.062-5.164 0a.92.92 0 0 1-.373-.213h.001c-.148-.148-.166-.201-.181-.551-.02-.452.089-.69.376-.814.258-.112 5.238-.114 5.506-.002zm4.685 2.339c.458.3.484 1.165.044 1.459-.108.072-.28.1-.715.116-.52.019-.573.029-.573.122 0 .299-.544 8.147-.593 8.55-.113.931-.39 1.501-1.006 2.071a2.871 2.871 0 0 1-1.283.717c-.312.086-.628.095-3.305.095-3.24 0-3.293-.004-3.92-.328-.973-.502-1.531-1.36-1.677-2.579-.046-.387-.589-8.24-.589-8.526 0-.093-.053-.104-.573-.122-.645-.024-.799-.088-.942-.389-.104-.221-.11-.679-.01-.872a.746.746 0 0 1 .434-.382l.005-.002c.084-.025 3.394-.041 7.355-.037 6.843.009 7.209.014 7.349.106zM11.52 12.347c0 .368.543 8.152.589 8.439.029.182.076.391.103.463.077.2.422.558.665.688.215.115.24.116 3.123.116s2.909-.001 3.123-.116c.243-.13.589-.488.665-.688.027-.072.073-.281.103-.463.045-.286.589-8.071.589-8.439v-.134h-8.96v.134zm3.427 1.767c.339.174.333.129.333 2.659 0 2.104-.008 2.311-.093 2.441-.138.211-.384.317-.733.317s-.579-.1-.725-.315c-.096-.141-.101-.278-.101-2.443 0-2.285 0-2.294.119-2.459.228-.322.783-.413 1.201-.2zm3.085-.004a.778.778 0 0 1 .238.218l.002.002c.095.14.103.291.117 2.349.014 2.087.01 2.213-.088 2.436-.132.298-.344.414-.754.414-.349 0-.595-.106-.733-.317-.084-.129-.095-.349-.11-2.332-.018-2.301-.003-2.477.218-2.684.231-.217.774-.261 1.111-.088z"/></symbol><symbol id="icon-burger" viewBox="0 0 32 32"><path d="M3.498 6.936c-.218.065-.503.358-.566.582a2.376 2.376 0 0 0 0 .965c.066.235.349.515.591.585.25.072 24.699.072 24.959 0 .235-.066.515-.349.585-.591a2.284 2.284 0 0 0 0-.953c-.07-.242-.35-.525-.585-.591-.239-.066-24.762-.064-24.984.003zm0 5.333c-.218.065-.503.359-.566.583a2.376 2.376 0 0 0 0 .965c.066.235.349.515.591.585.25.072 19.367.071 19.625-.001.235-.065.517-.349.585-.59a2.29 2.29 0 0 0 0-.954c-.069-.241-.35-.525-.585-.59-.238-.066-19.429-.064-19.65.002zm-.015 5.337c-.229.066-.481.328-.547.57-.07.25-.071.727-.003.973.066.235.349.517.591.585.25.072 24.699.072 24.959 0 .235-.065.515-.349.585-.59a2.29 2.29 0 0 0 0-.954c-.07-.241-.35-.525-.585-.59-.248-.069-24.76-.064-24.999.006zm.015 5.33c-.218.065-.503.358-.566.582a2.376 2.376 0 0 0 0 .965c.066.235.349.515.591.585.25.072 19.367.071 19.625 0 .235-.066.517-.349.585-.591a2.284 2.284 0 0 0 0-.953c-.069-.242-.35-.525-.585-.591-.238-.066-19.429-.063-19.65.003z"/></symbol><symbol id="icon-x-close" viewBox="0 0 32 32"><path d="M7.626 6.245c-.291.085-.749.427-1.029.774-.432.533-.509 1.054-.24 1.616.088.184 1.011 1.143 3.665 3.806l3.547 3.56-3.551 3.56c-3.907 3.918-3.806 3.799-3.805 4.44 0 .449.157.77.586 1.199.429.43.75.586 1.199.586.634 0 .526.093 4.44-3.808l3.56-3.547 3.56 3.547c3.914 3.901 3.806 3.808 4.44 3.808.449 0 .77-.157 1.199-.586.43-.429.586-.75.586-1.199 0-.634.093-.526-3.808-4.44l-3.547-3.56 3.547-3.56c3.901-3.914 3.808-3.806 3.808-4.44 0-.449-.157-.77-.586-1.199-.429-.43-.75-.586-1.199-.586-.634 0-.526-.093-4.44 3.808l-3.56 3.547-3.56-3.547c-2.721-2.712-3.619-3.576-3.814-3.67-.29-.138-.728-.186-1-.109z"/></symbol><symbol id="icon-arrow-up" viewBox="0 0 32 32"><path d="M4.5 19.6 15.7 8.367c.133-.133.278-.228.433-.283s.322-.084.5-.084.345.028.5.084.3.149.433.283L28.799 19.6c.311.311.467.7.467 1.167s-.167.867-.5 1.2c-.333.333-.722.5-1.167.5s-.833-.167-1.167-.5l-9.8-9.8-9.8 9.8c-.311.311-.694.467-1.149.467s-.851-.167-1.184-.5-.5-.722-.5-1.167c0-.444.167-.833.5-1.167z"/></symbol><symbol id="icon-pagin-right" viewBox="0 0 32 32"><path d="M17.867 16.946a1.334 1.334 0 0 0 0-1.894l-6.12-6.107a1.334 1.334 0 1 1 1.88-1.894l6.12 6.12a4.001 4.001 0 0 1 0 5.654l-6.12 6.12a1.337 1.337 0 0 1-2.172-.434 1.331 1.331 0 0 1 .292-1.46l6.12-6.107z"/></symbol><symbol id="icon-pagin-left" viewBox="0 0 32 32"><path d="M14.133 16.946a1.334 1.334 0 0 1 0-1.894l6.12-6.107a1.334 1.334 0 1 0-1.88-1.894l-6.12 6.12a4.001 4.001 0 0 0 0 5.654l6.12 6.12a1.337 1.337 0 0 0 2.172-.434 1.331 1.331 0 0 0-.292-1.46l-6.12-6.107z"/></symbol><symbol id="icon-arrow-down" viewBox="0 0 32 32"><path d="M15.053 17.867a1.334 1.334 0 0 0 1.894 0l6.107-6.12a1.334 1.334 0 1 1 1.894 1.88l-6.12 6.12a4.001 4.001 0 0 1-5.654 0l-6.12-6.12a1.337 1.337 0 0 1 .434-2.172 1.331 1.331 0 0 1 1.46.292l6.107 6.12z"/></symbol><symbol id="icon-triangle-down" viewBox="0 0 28 32"><path d="M5.898 12h16.513l-7.423 8.391c-.221.25-.521.39-.834.39s-.613-.14-.834-.39L5.898 12z"/><symbol id="icon-arrow-narrow-right" viewBox="0 0 32 32"><path fill="none" stroke="#eac645" stroke-width="3.2" stroke-linecap="round" stroke-linejoin="round" style="stroke:var(--color1,#eac645)" d="M5.333 16h21.333m.001 0-8-8m8 8-8 8"/></symbol></symbol></defs></svg>