<svg aria-hidden="true" style="width:0;height:0;position:absolute;overflow:hidden" xmlns="http://www.w3.org/2000/svg"><defs><symbol id="icon-arrow-to-left" viewBox="0 0 18 32"><path fill="#b4afaf" style="fill:var(--color1,#b4afaf)" d="M6.208 17.488a2.082 2.082 0 0 1-.459-2.294c.106-.256.262-.487.459-.682l9.617-9.596a2.108 2.108 0 0 0 .62-1.488 2.104 2.104 0 0 0-.62-1.488 2.097 2.097 0 0 0-2.954 0l-9.617 9.617a6.286 6.286 0 0 0 0 8.884l9.617 9.617a2.099 2.099 0 0 0 3.574-1.487 2.104 2.104 0 0 0-.62-1.488l-9.617-9.596z"/></symbol></defs></svg>