<svg aria-hidden="true" style="position: absolute; width: 0; height: 0; overflow: hidden;" version="1.1" xmlns="http://www.w3.org/2000/svg" xmlns:xlink="http://www.w3.org/1999/xlink">
<defs>
<symbol id="icon-arrow-to-right" viewBox="0 0 18 32">
<path d="M12.078 17.488c0.196-0.195 0.352-0.427 0.459-0.682s0.161-0.529 0.161-0.806c0-0.277-0.055-0.55-0.161-0.806s-0.262-0.487-0.459-0.682l-9.617-9.596c-0.196-0.195-0.352-0.426-0.459-0.682s-0.161-0.529-0.161-0.806c0-0.277 0.055-0.55 0.161-0.806s0.262-0.487 0.459-0.682c0.393-0.39 0.924-0.609 1.477-0.609s1.085 0.219 1.477 0.609l9.617 9.617c1.177 1.179 1.838 2.776 1.838 4.442s-0.661 3.263-1.838 4.442l-9.617 9.617c-0.39 0.387-0.917 0.605-1.467 0.608-0.276 0.002-0.549-0.051-0.804-0.156s-0.487-0.258-0.683-0.452c-0.196-0.195-0.352-0.427-0.459-0.682s-0.161-0.529-0.161-0.806 0.055-0.55 0.161-0.806c0.106-0.255 0.262-0.487 0.459-0.682l9.617-9.596z"></path>
</symbol>
</defs>
</svg>
