<svg aria-hidden="true" style="position: absolute; width: 0; height: 0; overflow: hidden;" version="1.1" xmlns="http://www.w3.org/2000/svg" xmlns:xlink="http://www.w3.org/1999/xlink">
<defs>
<symbol id="icon-logo" viewBox="0 0 31 32">
<title>logo</title>
<path fill="#f6f6f6" style="fill: var(--color1, #f6f6f6)" d="M0 0.615l15.714 15.549 15.055 15.22v-30.769h-30.769z"></path>
<path fill="#f6f6f6" style="fill: var(--color1, #f6f6f6)" d="M4.286 4.681l11.483 11.374 10.824 11.044h-22.308v-22.418z"></path>
<path fill="#4f2ee8" style="fill: var(--color2, #4f2ee8)" d="M26.666 27.171l-11.484-11.374-10.824-11.044h22.308v22.418z"></path>
<path fill="#4f2ee8" style="fill: var(--color2, #4f2ee8)" d="M8.901 9.297l13.077 13.077h-13.077v-13.077z"></path>
<path fill="#f6f6f6" style="fill: var(--color1, #f6f6f6)" d="M8.901 9.297l13.077 13.077v-13.077h-13.077z"></path>
</symbol>
<symbol id="icon-full-logo--dark-theme" viewBox="0 0 98 32">
<title>full-logo--dark-theme</title>
<path fill="#f6f6f6" style="fill: var(--color1, #f6f6f6)" d="M0 1.714l14.592 14.439 13.98 14.133v-28.571h-28.571z"></path>
<path fill="#f6f6f6" style="fill: var(--color1, #f6f6f6)" d="M3.98 5.49l10.663 10.561 10.051 10.255h-20.714v-20.816z"></path>
<path fill="#4f2ee8" style="fill: var(--color2, #4f2ee8)" d="M24.762 26.373l-10.663-10.561-10.051-10.255h20.714v20.816z"></path>
<path fill="#4f2ee8" style="fill: var(--color2, #4f2ee8)" d="M8.265 9.776l12.143 12.143h-12.143v-12.143z"></path>
<path fill="#f6f6f6" style="fill: var(--color1, #f6f6f6)" d="M8.265 9.776l12.143 12.143v-12.143h-12.143z"></path>
<path fill="#f3f3f3" style="fill: var(--color3, #f3f3f3)" d="M52.391 11.076c0-3.061-2.315-4.791-6.317-4.791h-8.36v19.029h8.822c4.030 0 6.617-1.89 6.617-5.562 0-2.848-1.743-4.312-3.785-4.658v-0.053c1.607-0.532 3.023-1.623 3.023-3.966zM40.955 14.164v-5.19h5.201c1.933 0 2.995 0.931 2.995 2.608s-0.871 2.582-3.186 2.582h-5.010zM40.955 16.532h5.691c2.042 0 3.268 1.091 3.268 3.034 0 1.783-0.844 3.061-3.621 3.061h-5.337v-6.095z"></path>
<path fill="#f3f3f3" style="fill: var(--color3, #f3f3f3)" d="M61.467 25.714c-4.357 0-6.998-2.954-6.998-7.186s2.641-7.186 6.998-7.186 6.998 2.954 6.998 7.186c0 4.232-2.641 7.186-6.998 7.186zM61.467 23.425c2.723 0 4.139-2.103 4.139-4.897 0-2.821-1.416-4.897-4.139-4.897s-4.139 2.076-4.139 4.897c0 2.794 1.416 4.897 4.139 4.897z"></path>
<path fill="#f3f3f3" style="fill: var(--color3, #f3f3f3)" d="M76.704 25.714c-4.357 0-6.998-2.954-6.998-7.186s2.641-7.186 6.998-7.186c4.357 0 6.998 2.954 6.998 7.186s-2.641 7.186-6.998 7.186zM76.704 23.425c2.723 0 4.139-2.103 4.139-4.897 0-2.821-1.416-4.897-4.139-4.897s-4.139 2.076-4.139 4.897c0 2.794 1.416 4.897 4.139 4.897z"></path>
<path fill="#f3f3f3" style="fill: var(--color3, #f3f3f3)" d="M85.678 6.286v19.029h2.859v-4.924l1.933-1.783 4.384 6.707h3.431l-5.854-8.543 5.283-5.057h-3.513l-5.664 5.456v-10.885h-2.859z"></path>
</symbol>
<symbol id="icon-full-logo" viewBox="0 0 98 32">
<title>full-logo</title>
<path fill="#f6f6f6" style="fill: var(--color1, #f6f6f6)" d="M0 1.714l14.592 14.439 13.98 14.133v-28.571h-28.571z"></path>
<path fill="#f6f6f6" style="fill: var(--color1, #f6f6f6)" d="M3.98 5.49l10.663 10.561 10.051 10.255h-20.714v-20.816z"></path>
<path fill="#4f2ee8" style="fill: var(--color2, #4f2ee8)" d="M24.762 26.373l-10.663-10.561-10.051-10.255h20.714v20.816z"></path>
<path fill="#4f2ee8" style="fill: var(--color2, #4f2ee8)" d="M8.265 9.776l12.143 12.143h-12.143v-12.143z"></path>
<path fill="#f6f6f6" style="fill: var(--color1, #f6f6f6)" d="M8.265 9.776l12.143 12.143v-12.143h-12.143z"></path>
<path fill="#000" style="fill: var(--color4, #000)" d="M52.391 11.076c0-3.061-2.315-4.791-6.317-4.791h-8.36v19.029h8.822c4.030 0 6.617-1.89 6.617-5.562 0-2.848-1.743-4.312-3.785-4.658v-0.053c1.607-0.532 3.023-1.623 3.023-3.966zM40.955 14.164v-5.19h5.201c1.933 0 2.995 0.931 2.995 2.608s-0.871 2.582-3.186 2.582h-5.010zM40.955 16.532h5.691c2.042 0 3.268 1.091 3.268 3.034 0 1.783-0.844 3.061-3.621 3.061h-5.337v-6.095z"></path>
<path fill="#000" style="fill: var(--color4, #000)" d="M61.467 25.714c-4.357 0-6.998-2.954-6.998-7.186s2.641-7.186 6.998-7.186 6.998 2.954 6.998 7.186c0 4.232-2.641 7.186-6.998 7.186zM61.467 23.425c2.723 0 4.139-2.103 4.139-4.897 0-2.821-1.416-4.897-4.139-4.897s-4.139 2.076-4.139 4.897c0 2.794 1.416 4.897 4.139 4.897z"></path>
<path fill="#000" style="fill: var(--color4, #000)" d="M76.704 25.714c-4.357 0-6.998-2.954-6.998-7.186s2.641-7.186 6.998-7.186c4.357 0 6.998 2.954 6.998 7.186s-2.641 7.186-6.998 7.186zM76.704 23.425c2.723 0 4.139-2.103 4.139-4.897 0-2.821-1.416-4.897-4.139-4.897s-4.139 2.076-4.139 4.897c0 2.794 1.416 4.897 4.139 4.897z"></path>
<path fill="#000" style="fill: var(--color4, #000)" d="M85.678 6.286v19.029h2.859v-4.924l1.933-1.783 4.384 6.707h3.431l-5.854-8.543 5.283-5.057h-3.513l-5.664 5.456v-10.885h-2.859z"></path>
</symbol>
<symbol id="icon-emblem" viewBox="0 0 20 32">
<title>emblem</title>
<path d="M9.005 30.888c-1.738-1.262-2.991-3.156-3.414-5.351h-5.591v-23.117c2.991 1.443 5.153 4.599 5.388 7.876l0.846 6.493-0.407-0.045c-0.893 0-1.676 0.812-1.676 1.608 0 0.752 0.595 1.383 1.378 1.548l1.018 0.226c1.676-3.051 2.631-6.042 2.631-8.973 0-2.645-0.36-5.291-0.423-7.996 0-1.202 0.486-2.3 1.253-3.156 0.783 0.857 1.253 1.954 1.253 3.156 0 2.705-0.423 5.351-0.423 7.996 0 2.931 0.955 5.922 2.631 8.973l1.018-0.226c0.783-0.165 1.378-0.812 1.378-1.548 0-0.812-0.783-1.608-1.676-1.608l-0.423 0.060 0.846-6.493c0.423-3.277 2.396-6.448 5.388-7.876v23.117h-5.576c-0.423 2.179-1.613 4.148-3.414 5.351-0.423 0.286-0.783 0.631-1.018 1.097-0.219-0.466-0.579-0.812-0.987-1.112zM2.647 17.556c0.235-0.857 0.893-1.608 1.738-2.074l-0.658-5.351c-0.235-1.668-0.955-3.156-2.036-4.374v11.784h0.955v0.015zM5.466 23.929c0-0.812 0.125-1.548 0.298-2.3l-0.783-0.18c-1.143-0.346-2.036-1.203-2.334-2.3h-0.955v4.78h3.774zM9.178 23.929c0-0.977-0.783-1.834-1.801-1.954-0.172 0.631-0.298 1.263-0.298 1.954h2.099zM9.178 25.552h-1.864c0.298 1.263 0.955 2.42 1.864 3.397v-3.397zM11.809 20.547c-0.72-1.262-1.378-2.585-1.801-3.968-0.423 1.383-1.081 2.706-1.801 3.968 0.72 0.165 1.316 0.631 1.801 1.157 0.486-0.526 1.081-0.992 1.801-1.157zM12.952 23.929c0-0.691-0.125-1.323-0.297-1.954-1.018 0.12-1.801 0.977-1.801 1.954h2.099zM12.717 25.552h-1.864v3.397c0.908-0.992 1.566-2.134 1.864-3.397zM18.34 23.929v-4.78h-0.955c-0.298 1.097-1.206 1.954-2.334 2.3l-0.783 0.18c0.172 0.752 0.298 1.488 0.298 2.3h3.774zM18.34 17.556v-11.799c-1.081 1.202-1.864 2.706-2.036 4.374l-0.658 5.351c0.846 0.466 1.504 1.203 1.739 2.074h0.955z"></path>
</symbol>
<symbol id="icon-user" viewBox="0 0 32 32">
<title>user</title>
<path d="M5.333 29.333c0-2.829 1.124-5.542 3.124-7.543s4.713-3.124 7.542-3.124c2.829 0 5.542 1.124 7.542 3.124s3.124 4.714 3.124 7.543h-21.333zM16 17.333c-4.42 0-8-3.58-8-8s3.58-8 8-8c4.42 0 8 3.58 8 8s-3.58 8-8 8z"></path>
</symbol>
<symbol id="icon-auth-password" viewBox="0 0 32 32">
<title>auth-password</title>
<path d="M14.751 2.963c-2.978 0.502-5.406 2.654-6.24 5.535-0.257 0.886-0.297 1.331-0.297 3.257v1.783l-0.36 0.034c-0.999 0.096-1.616 0.243-2.174 0.521-0.962 0.48-1.658 1.15-2.16 2.080-0.278 0.515-0.398 0.874-0.517 1.544-0.086 0.488-0.097 0.887-0.097 3.616 0 3.763 0.040 4.095 0.614 5.159 0.499 0.926 1.199 1.599 2.16 2.079 0.421 0.21 0.745 0.312 1.36 0.427 0.472 0.088 1.093 0.095 8.96 0.095s8.488-0.007 8.96-0.095c0.84-0.157 1.342-0.359 2-0.803 0.826-0.558 1.554-1.522 1.858-2.462 0.256-0.793 0.275-1.099 0.275-4.4 0-3.302-0.019-3.608-0.275-4.4-0.368-1.139-1.229-2.155-2.326-2.747-0.651-0.351-1.25-0.507-2.346-0.614l-0.36-0.034v-1.783c0-1.926-0.040-2.371-0.297-3.257-0.561-1.938-1.862-3.59-3.621-4.598-0.837-0.48-1.699-0.783-2.67-0.939-0.611-0.098-1.855-0.097-2.448 0.002zM17.12 5.262c1.742 0.344 3.322 1.671 3.994 3.355 0.363 0.91 0.4 1.197 0.403 3.169l0.002 1.734h-11.040l0.002-1.734c0.002-1.97 0.038-2.256 0.401-3.165 0.871-2.181 3.074-3.599 5.383-3.465 0.25 0.015 0.634 0.062 0.854 0.105zM23.576 15.838c0.543 0.027 1.079 0.085 1.28 0.136 0.856 0.221 1.617 0.981 1.837 1.835 0.247 0.96 0.247 6.089 0 7.048-0.219 0.854-0.981 1.615-1.835 1.835-0.601 0.155-2.011 0.185-8.857 0.185s-8.256-0.030-8.857-0.185c-0.855-0.221-1.616-0.982-1.835-1.835-0.248-0.96-0.247-6.090 0-7.048 0.221-0.856 0.979-1.613 1.839-1.838 0.191-0.049 0.695-0.107 1.12-0.129 1.126-0.057 14.206-0.061 15.31-0.005z"></path>
</symbol>
<symbol id="icon-auth-mail" viewBox="0 0 32 32">
<title>auth-mail</title>
<path d="M6.4 4.248c-0.475 0.049-1.258 0.195-1.51 0.282-0.931 0.32-1.833 0.997-2.374 1.782-0.501 0.726-0.687 1.19-0.861 2.142-0.104 0.568-0.107 0.798-0.106 7.333 0.001 6.435 0.018 7.322 0.16 8.054 0.233 1.202 0.983 2.338 1.997 3.023 0.658 0.445 1.16 0.646 2 0.802 0.474 0.089 1.15 0.095 10.294 0.095s9.819-0.006 10.294-0.095c0.869-0.162 1.357-0.362 2.061-0.848 0.978-0.674 1.71-1.799 1.935-2.977 0.145-0.755 0.161-1.539 0.161-8.026 0.001-6.561-0.002-6.792-0.106-7.36-0.138-0.757-0.225-1.023-0.506-1.56-0.395-0.754-0.882-1.307-1.544-1.755-0.634-0.43-1.141-0.638-1.947-0.8-0.417-0.085-1.216-0.093-10.106-0.101-5.31-0.005-9.737 0-9.84 0.010zM24.937 6.504c0.512 0.027 1.062 0.087 1.254 0.137 0.845 0.218 1.614 0.981 1.83 1.811 0.065 0.251 0.069 0.334 0.018 0.383-0.198 0.19-11.107 7.776-11.387 7.919-0.265 0.135-0.401 0.17-0.651 0.17s-0.386-0.035-0.651-0.17c-0.28-0.143-11.19-7.729-11.387-7.919-0.051-0.050-0.049-0.121 0.008-0.338 0.111-0.422 0.296-0.754 0.609-1.094 0.576-0.624 1.114-0.831 2.328-0.895 1.091-0.057 16.959-0.061 18.031-0.005zM7.097 13.826c1.77 1.24 3.216 2.273 3.211 2.298-0.005 0.024-1.456 1.351-3.225 2.949l-3.217 2.905-0.035-0.23c-0.054-0.338-0.051-10.175 0.001-10.175 0.025 0 1.495 1.014 3.265 2.253zM28.21 16.574c-0.002 2.75-0.019 5.090-0.040 5.202l-0.037 0.202-3.217-2.905c-1.769-1.598-3.221-2.925-3.225-2.949-0.008-0.048 6.4-4.551 6.477-4.551 0.025 0 0.043 2.249 0.042 5zM13.238 18.115c1.325 0.896 1.801 1.082 2.762 1.082 0.962 0 1.438-0.186 2.767-1.085 0.507-0.344 0.945-0.618 0.973-0.609s1.789 1.587 3.915 3.507l3.865 3.49-0.2 0.206c-0.282 0.291-0.729 0.549-1.131 0.653-0.61 0.158-2.051 0.184-10.189 0.184s-9.578-0.026-10.189-0.184c-0.402-0.104-0.849-0.361-1.131-0.651l-0.2-0.206 3.88-3.504c2.134-1.928 3.897-3.505 3.919-3.505s0.453 0.28 0.959 0.622z"></path>
</symbol>
<symbol id="icon-cart" viewBox="0 0 32 32">
<title>cart</title>
<path d="M25.333 9.333h-4v-1.333c0-1.415-0.562-2.771-1.562-3.771s-2.357-1.562-3.771-1.562c-1.414 0-2.771 0.562-3.771 1.562s-1.562 2.357-1.562 3.771v1.333h-4c-0.354 0-0.693 0.14-0.943 0.391s-0.391 0.589-0.391 0.943v14.667c0 1.061 0.421 2.078 1.172 2.828s1.768 1.172 2.828 1.172h13.333c1.061 0 2.078-0.421 2.828-1.172s1.172-1.768 1.172-2.828v-14.667c0-0.354-0.14-0.693-0.391-0.943s-0.589-0.391-0.943-0.391zM13.333 8c0-0.707 0.281-1.386 0.781-1.886s1.178-0.781 1.886-0.781c0.707 0 1.385 0.281 1.886 0.781s0.781 1.178 0.781 1.886v1.333h-5.333v-1.333zM24 25.333c0 0.354-0.14 0.693-0.391 0.943s-0.589 0.391-0.943 0.391h-13.333c-0.354 0-0.693-0.14-0.943-0.391s-0.391-0.589-0.391-0.943v-13.333h2.667v1.333c0 0.354 0.14 0.693 0.391 0.943s0.589 0.391 0.943 0.391c0.354 0 0.693-0.14 0.943-0.391s0.391-0.589 0.391-0.943v-1.333h5.333v1.333c0 0.354 0.14 0.693 0.39 0.943s0.589 0.391 0.943 0.391 0.693-0.14 0.943-0.391c0.25-0.25 0.391-0.589 0.391-0.943v-1.333h2.667v13.333z"></path>
</symbol>
<symbol id="icon-delete" viewBox="0 0 32 32">
<title>delete</title>
<path d="M15.040 0.031c-0.103 0.012-0.451 0.047-0.773 0.078-0.763 0.075-2.021 0.326-2.824 0.563-1.815 0.536-3.73 1.524-5.309 2.741-0.763 0.588-2.287 2.143-2.883 2.942-1.723 2.311-2.735 4.791-3.122 7.645-0.115 0.847-0.132 2.932-0.031 3.733 0.267 2.123 0.748 3.711 1.673 5.532 1.549 3.018 3.946 5.416 6.876 6.923l0.089 0.041c2.382 1.211 4.598 1.742 7.265 1.742s4.883-0.531 7.265-1.742c1.593-0.81 2.684-1.608 4.019-2.945s2.135-2.426 2.945-4.019c0.925-1.821 1.407-3.414 1.673-5.532 0.099-0.785 0.083-2.835-0.027-3.671-0.39-2.943-1.487-5.591-3.288-7.929-0.588-0.763-2.143-2.287-2.942-2.883-2.301-1.716-4.829-2.749-7.618-3.115-0.632-0.083-2.584-0.152-2.987-0.104zM18.747 8.291c0.297 0.124 0.408 0.358 0.388 0.816-0.015 0.349-0.033 0.403-0.181 0.551-0.102 0.096-0.227 0.169-0.366 0.211l-0.007 0.002c-0.272 0.062-4.892 0.062-5.164 0-0.145-0.043-0.27-0.116-0.373-0.213l0.001 0c-0.148-0.148-0.166-0.201-0.181-0.551-0.020-0.452 0.089-0.69 0.376-0.814 0.258-0.112 5.238-0.114 5.506-0.002zM23.432 10.63c0.458 0.3 0.484 1.165 0.044 1.459-0.108 0.072-0.28 0.1-0.715 0.116-0.52 0.019-0.573 0.029-0.573 0.122 0 0.299-0.544 8.147-0.593 8.55-0.113 0.931-0.39 1.501-1.006 2.071-0.402 0.371-0.768 0.575-1.283 0.717-0.312 0.086-0.628 0.095-3.305 0.095-3.24 0-3.293-0.004-3.92-0.328-0.973-0.502-1.531-1.36-1.677-2.579-0.046-0.387-0.589-8.24-0.589-8.526 0-0.093-0.053-0.104-0.573-0.122-0.645-0.024-0.799-0.088-0.942-0.389-0.104-0.221-0.11-0.679-0.010-0.872 0.089-0.182 0.245-0.319 0.434-0.382l0.005-0.002c0.084-0.025 3.394-0.041 7.355-0.037 6.843 0.009 7.209 0.014 7.349 0.106zM11.52 12.347c0 0.368 0.543 8.152 0.589 8.439 0.029 0.182 0.076 0.391 0.103 0.463 0.077 0.2 0.422 0.558 0.665 0.688 0.215 0.115 0.24 0.116 3.123 0.116s2.909-0.001 3.123-0.116c0.243-0.13 0.589-0.488 0.665-0.688 0.027-0.072 0.073-0.281 0.103-0.463 0.045-0.286 0.589-8.071 0.589-8.439v-0.134h-8.96v0.134zM14.947 14.114c0.339 0.174 0.333 0.129 0.333 2.659 0 2.104-0.008 2.311-0.093 2.441-0.138 0.211-0.384 0.317-0.733 0.317s-0.579-0.1-0.725-0.315c-0.096-0.141-0.101-0.278-0.101-2.443 0-2.285 0-2.294 0.119-2.459 0.228-0.322 0.783-0.413 1.201-0.2zM18.032 14.11c0.096 0.057 0.176 0.131 0.238 0.218l0.002 0.002c0.095 0.14 0.103 0.291 0.117 2.349 0.014 2.087 0.010 2.213-0.088 2.436-0.132 0.298-0.344 0.414-0.754 0.414-0.349 0-0.595-0.106-0.733-0.317-0.084-0.129-0.095-0.349-0.11-2.332-0.018-2.301-0.003-2.477 0.218-2.684 0.231-0.217 0.774-0.261 1.111-0.088z"></path>
</symbol>
<symbol id="icon-burger" viewBox="0 0 32 32">
<title>burger</title>
<path d="M3.498 6.936c-0.218 0.065-0.503 0.358-0.566 0.582-0.066 0.242-0.066 0.722 0 0.965 0.066 0.235 0.349 0.515 0.591 0.585 0.25 0.072 24.699 0.072 24.959 0 0.235-0.066 0.515-0.349 0.585-0.591 0.067-0.234 0.067-0.719 0-0.953-0.070-0.242-0.35-0.525-0.585-0.591-0.239-0.066-24.762-0.064-24.984 0.003zM3.498 12.269c-0.218 0.065-0.503 0.359-0.566 0.583-0.066 0.242-0.066 0.722 0 0.965 0.066 0.235 0.349 0.515 0.591 0.585 0.25 0.072 19.367 0.071 19.625-0.001 0.235-0.065 0.517-0.349 0.585-0.59 0.067-0.234 0.067-0.719 0-0.954-0.069-0.241-0.35-0.525-0.585-0.59-0.238-0.066-19.429-0.064-19.65 0.002zM3.483 17.606c-0.229 0.066-0.481 0.328-0.547 0.57-0.070 0.25-0.071 0.727-0.003 0.973 0.066 0.235 0.349 0.517 0.591 0.585 0.25 0.072 24.699 0.072 24.959 0 0.235-0.065 0.515-0.349 0.585-0.59 0.067-0.235 0.067-0.72 0-0.954-0.070-0.241-0.35-0.525-0.585-0.59-0.248-0.069-24.76-0.064-24.999 0.006zM3.498 22.936c-0.218 0.065-0.503 0.358-0.566 0.582-0.066 0.242-0.066 0.722 0 0.965 0.066 0.235 0.349 0.515 0.591 0.585 0.25 0.072 19.367 0.071 19.625 0 0.235-0.066 0.517-0.349 0.585-0.591 0.067-0.234 0.067-0.719 0-0.953-0.069-0.242-0.35-0.525-0.585-0.591-0.238-0.066-19.429-0.063-19.65 0.003z"></path>
</symbol>
<symbol id="icon-x-close" viewBox="0 0 32 32">
<title>x-close</title>
<path d="M7.626 6.245c-0.291 0.085-0.749 0.427-1.029 0.774-0.432 0.533-0.509 1.054-0.24 1.616 0.088 0.184 1.011 1.143 3.665 3.806l3.547 3.56-3.551 3.56c-3.907 3.918-3.806 3.799-3.805 4.44 0 0.449 0.157 0.77 0.586 1.199 0.429 0.43 0.75 0.586 1.199 0.586 0.634 0 0.526 0.093 4.44-3.808l3.56-3.547 3.56 3.547c3.914 3.901 3.806 3.808 4.44 3.808 0.449 0 0.77-0.157 1.199-0.586 0.43-0.429 0.586-0.75 0.586-1.199 0-0.634 0.093-0.526-3.808-4.44l-3.547-3.56 3.547-3.56c3.901-3.914 3.808-3.806 3.808-4.44 0-0.449-0.157-0.77-0.586-1.199-0.429-0.43-0.75-0.586-1.199-0.586-0.634 0-0.526-0.093-4.44 3.808l-3.56 3.547-3.56-3.547c-2.721-2.712-3.619-3.576-3.814-3.67-0.29-0.138-0.728-0.186-1-0.109z"></path>
</symbol>
<symbol id="icon-arrow-up" viewBox="0 0 32 32">
<title>arrow-up</title>
<path d="M4.5 19.6l11.2-11.233c0.133-0.133 0.278-0.228 0.433-0.283s0.322-0.084 0.5-0.084c0.178 0 0.345 0.028 0.5 0.084s0.3 0.149 0.433 0.283l11.233 11.233c0.311 0.311 0.467 0.7 0.467 1.167s-0.167 0.867-0.5 1.2c-0.333 0.333-0.722 0.5-1.167 0.5s-0.833-0.167-1.167-0.5l-9.8-9.8-9.8 9.8c-0.311 0.311-0.694 0.467-1.149 0.467s-0.851-0.167-1.184-0.5-0.5-0.722-0.5-1.167c0-0.444 0.167-0.833 0.5-1.167z"></path>
</symbol>
<symbol id="icon-pagin-right" viewBox="0 0 32 32">
<title>pagin-right</title>
<path d="M17.867 16.946c0.125-0.124 0.224-0.271 0.292-0.434s0.103-0.337 0.103-0.513-0.035-0.35-0.103-0.513c-0.068-0.162-0.167-0.31-0.292-0.434l-6.12-6.107c-0.125-0.124-0.224-0.271-0.292-0.434s-0.103-0.337-0.103-0.513c0-0.176 0.035-0.35 0.103-0.513s0.167-0.31 0.292-0.434c0.25-0.248 0.588-0.388 0.94-0.388s0.69 0.139 0.94 0.388l6.12 6.12c0.749 0.75 1.17 1.767 1.17 2.827s-0.421 2.077-1.17 2.827l-6.12 6.12c-0.248 0.246-0.584 0.385-0.933 0.387-0.175 0.001-0.349-0.033-0.512-0.099s-0.31-0.164-0.435-0.288c-0.125-0.124-0.224-0.271-0.292-0.434s-0.103-0.337-0.103-0.513c0-0.176 0.035-0.35 0.103-0.513s0.167-0.31 0.292-0.434l6.12-6.107z"></path>
</symbol>
<symbol id="icon-pagin-left" viewBox="0 0 32 32">
<title>pagin-left</title>
<path d="M14.133 16.946c-0.125-0.124-0.224-0.271-0.292-0.434s-0.103-0.337-0.103-0.513 0.035-0.35 0.103-0.513c0.068-0.163 0.167-0.31 0.292-0.434l6.12-6.107c0.125-0.124 0.224-0.271 0.292-0.434s0.103-0.337 0.103-0.513c0-0.176-0.035-0.35-0.103-0.513s-0.167-0.31-0.292-0.434c-0.25-0.248-0.588-0.388-0.94-0.388s-0.69 0.139-0.94 0.388l-6.12 6.12c-0.749 0.75-1.17 1.767-1.17 2.827s0.421 2.077 1.17 2.827l6.12 6.12c0.248 0.246 0.584 0.385 0.933 0.387 0.175 0.001 0.349-0.033 0.512-0.099s0.31-0.164 0.435-0.288c0.125-0.124 0.224-0.271 0.292-0.434s0.103-0.337 0.103-0.513c0-0.176-0.035-0.35-0.103-0.513s-0.167-0.31-0.292-0.434l-6.12-6.107z"></path>
</symbol>
<symbol id="icon-arrow-down" viewBox="0 0 32 32">
<title>arrow-down</title>
<path d="M15.053 17.867c0.124 0.125 0.271 0.224 0.434 0.292s0.337 0.103 0.513 0.103 0.35-0.035 0.513-0.103c0.162-0.068 0.31-0.167 0.434-0.292l6.107-6.12c0.124-0.125 0.271-0.224 0.434-0.292s0.337-0.103 0.513-0.103c0.176 0 0.35 0.035 0.513 0.103s0.31 0.167 0.434 0.292c0.248 0.25 0.388 0.588 0.388 0.94s-0.139 0.69-0.388 0.94l-6.12 6.12c-0.75 0.749-1.767 1.17-2.827 1.17s-2.077-0.421-2.827-1.17l-6.12-6.12c-0.246-0.248-0.385-0.584-0.387-0.933-0.001-0.175 0.033-0.349 0.099-0.512s0.164-0.31 0.288-0.435c0.124-0.125 0.271-0.224 0.434-0.292s0.337-0.103 0.513-0.103c0.176 0 0.35 0.035 0.513 0.103s0.31 0.167 0.434 0.292l6.107 6.12z"></path>
</symbol>
<symbol id="icon-triangle-down" viewBox="0 0 28 32">
<title>triangle-down</title>
<path d="M5.898 12h16.513l-7.423 8.391c-0.221 0.25-0.521 0.39-0.834 0.39s-0.613-0.14-0.834-0.39l-7.422-8.391z"></path>


<symbol id="icon-arrow-narrow-right" viewBox="0 0 32 32">
<path fill="none" stroke="#eac645" stroke-width="3.2" stroke-miterlimit="4" stroke-linecap="round" stroke-linejoin="round" style="stroke: var(--color1, #eac645)" d="M5.333 16h21.333M26.667 16l-8-8M26.667 16l-8 8"></path>
</symbol>



</symbol>
</defs>
</svg>
